<svg xmlns="http://www.w3.org/2000/svg" version="1.1" xmlns:xlink="http://www.w3.org/1999/xlink" width="81.5" height="81.5"><svg xmlns="http://www.w3.org/2000/svg" version="1.1" xmlns:xlink="http://www.w3.org/1999/xlink" width="81.5" height="81.5"><svg xmlns="http://www.w3.org/2000/svg" viewBox="-9.4 -31.037 81.5 81.5">
  <g stroke-linecap="round" fill-rule="evenodd" stroke="#00000000" stroke-width="0.25mm" fill="#ffe477">
    <path d="M 53.475 0.6 L 62.7 0.6 Q 60.6 7.65 57.638 11.775 Q 54.675 15.9 50.925 17.663 Q 47.175 19.425 42.675 19.425 Q 38.625 19.425 35.588 17.85 Q 32.55 16.275 30 14.25 Q 27.45 12.225 24.938 10.688 Q 22.425 9.15 19.425 9.15 Q 15.825 9.15 13.462 11.325 Q 11.1 13.5 9.225 18.825 L 0 18.825 Q 2.1 11.775 5.1 7.65 Q 8.1 3.525 11.85 1.763 Q 15.6 0 20.175 0 Q 24.15 0 27.15 1.538 Q 30.15 3.075 32.7 5.138 Q 35.25 7.2 37.762 8.738 Q 40.275 10.275 43.275 10.275 Q 46.95 10.275 49.313 8.1 Q 51.675 5.925 53.475 0.6 Z"></path>
  </g>
</svg></svg><style>@media (prefers-color-scheme: light) { :root { filter: none; } }
@media (prefers-color-scheme: dark) { :root { filter: none; } }
</style></svg>